<?xml version="1.0" encoding="UTF-8" standalone="no"?>
<svg width="119px" height="151px" viewBox="0 0 119 151" version="1.1" xmlns="http://www.w3.org/2000/svg" xmlns:xlink="http://www.w3.org/1999/xlink">
    <!-- Generator: Sketch 3.7.2 (28276) - http://www.bohemiancoding.com/sketch -->
    <title>Group 2</title>
    <desc>Created with Sketch.</desc>
    <defs>
        <rect id="path-1" x="0" y="0" width="100" height="100"></rect>
        <mask id="mask-2" maskContentUnits="userSpaceOnUse" maskUnits="objectBoundingBox" x="0" y="0" width="100" height="100" fill="white">
            <use xlink:href="#path-1"></use>
        </mask>
    </defs>
    <g id="Page-1" stroke="none" stroke-width="1" fill="none" fill-rule="evenodd">
        <g id="Main-Page-Mobile-Copy" transform="translate(-100.000000, -124.000000)">
            <g id="Group-2" transform="translate(99.000000, 124.000000)">
                <g id="signs" transform="translate(11.000000, 0.000000)">
                    <g id="Capa_1">
                        <g id="Group">
                            <path d="M20.9671875,56.25 L49.3453125,56.25 L57.9046875,80.2125 L60.846875,79.1625 L37.0390625,12.5 L33.2734375,12.5 L9.4671875,79.1625 L12.409375,80.2125 L20.9671875,56.25 L20.9671875,56.25 Z M35.15625,16.5203125 L48.2296875,53.125 L22.0828125,53.125 L35.15625,16.5203125 L35.15625,16.5203125 Z" id="Shape" fill="#34314C"></path>
                            <path d="M78.125,60.9375 C73.8015625,60.9375 65.625,62.896875 65.625,70.3125 C65.625,76.2703125 69.0421875,79.6875 75,79.6875 C79.2734375,79.6875 82.20625,78.2859375 84.353125,75.7484375 C84.9625,77.6890625 87.5,79.6875 89.0625,79.6875 L89.0625,76.5625 C87.5,76.5625 87.50625,73.953125 87.5,73.4375 L87.5,57.8125 C87.5,54.1890625 84.7421875,48.4375 77.34375,48.4375 C70.3921875,48.4375 67.6140625,52.034375 67.5,52.1875 L69.9859375,54.0796875 C70.06875,53.978125 72.05625,51.5625 77.34375,51.5625 C82.503125,51.5625 84.375,55.3015625 84.375,57.8125 L84.375,60.9375 L78.125,60.9375 L78.125,60.9375 Z M75,76.5625 C72.3171875,76.5625 68.75,75.9140625 68.75,70.3125 C68.75,64.1625 77.7453125,64.0640625 78.125,64.0625 L84.375,64.0625 L84.375,67.1875 C84.375,74.9359375 79.2765625,76.5625 75,76.5625 L75,76.5625 Z" id="Shape" fill="#34314C"></path>
                            <use id="Rectangle-30" stroke="#34314C" mask="url(#mask-2)" stroke-width="4" xlink:href="#path-1"></use>
                            <rect id="Rectangle-path" fill="#34314C" x="9.375" y="84.375" width="81.25" height="3.125"></rect>
                        </g>
                    </g>
                </g>
                <text id="No-Font-Pairs" font-family="ProximaNovaA-Light, Proxima Nova Alt" font-size="18" font-weight="300" letter-spacing="1.28571498" fill="#34314C">
                    <tspan x="0.118852604" y="128">No Font Pairs</tspan>
                    <tspan x="15.2144251" y="150"> Available</tspan>
                </text>
            </g>
        </g>
    </g>
</svg>