<?xml version="1.0" encoding="UTF-8" standalone="no"?>
<svg width="16px" height="16px" viewBox="0 0 16 16" version="1.1" xmlns="http://www.w3.org/2000/svg" xmlns:xlink="http://www.w3.org/1999/xlink">
    <!-- Generator: Sketch 3.7.2 (28276) - http://www.bohemiancoding.com/sketch -->
    <title>Create Pair Mobile Copy</title>
    <desc>Created with Sketch.</desc>
    <defs></defs>
    <g id="Page-1" stroke="none" stroke-width="1" fill="none" fill-rule="evenodd">
        <g id="Create-Pair-Mobile-Copy">
            <g id="Group-6" transform="translate(3.000000, 0.000000)">
                <path d="M3.90611759,15.7242322 C3.40537073,15.7283219 2.73707573,15.892229 2.36950018,15.8921132 C0.813839316,15.8916231 0.205666441,14.0650252 0.134153655,12.8636313 C0.0626408697,11.6622374 0.598408912,10.5416314 1.01772771,10.0779892 C1.43704651,9.61434705 1.69847742,9.30320989 1.89012375,7.98035878 C2.08177007,6.65750767 2.61579419,5.94387179 2.91043662,5.65996319 C3.20507905,5.37605459 3.88496187,5.33909449 3.88496187,5.33909449 L3.88497256,5.34186792 C3.98503382,5.34829956 4.61921023,5.39884316 4.89020252,5.65996319 C5.18484495,5.94387179 5.71886907,6.65750767 5.91051539,7.98035878 C6.10216172,9.30320989 6.36359263,9.61434705 6.78291143,10.0779892 C7.20223022,10.5416314 7.73799827,11.6622374 7.66648548,12.8636313 C7.59497269,14.0650252 6.98679982,15.8916231 5.43113895,15.8921132 C5.05892031,15.8922305 4.40882971,15.7248273 3.90611954,15.7248268 Z" id="Combined-Shape" stroke="#FFC952" stroke-width="0.5" fill="#FFC952"></path>
                <path d="M4.02482123,5.25335867 C4.02482123,5.25335867 4.01323125,3.1769636 3.9034036,2.61510544 C3.79357596,2.05324728 3.2072653,0.711271055 2.59625972,0.0402830429 C2.56032242,-0.0344901035 2.27577714,0.491512422 1.93969839,0.548673892 C1.78040964,0.67828602 2.25266043,0.780206444 3.21863801,2.93042013 C3.62882155,3.84346642 3.7379472,4.1367263 3.73794729,4.58170563 C3.73794738,5.02668496 3.72059582,5.26709373 3.72059582,5.26709373 L4.02482123,5.25335867 Z" id="Path-19" stroke="#B5691C" stroke-width="0.5" fill="#B5691C"></path>
                <path d="M4.08633259,4.74129098 C4.08633259,4.74129098 4.752734,4.28121462 5.55239797,4.19326343 C6.35206195,4.10531224 7.11910781,3.87279076 7.75139215,3.36872508 C8.38367648,2.8646594 8.40005557,2.44713373 8.5348392,2.04837417 C8.66962284,1.64961461 8.77273282,1.24339129 9.02402219,0.892336803 C9.27531156,0.541282319 10.0275176,0.0443058658 10.0275176,0.0443058658 C10.0275176,0.0443058658 5.47171556,-0.320304635 4.03809321,3.10254411 C4.0380932,3.50241522 4.08633259,4.74129098 4.08633259,4.74129098 Z" id="Path-20" fill="#99D575"></path>
                <path d="M4.88719958,3.4476016 C4.88719958,3.4476016 6.6493644,1.4418097 7.69346474,0.889171316" id="Path-22" stroke="#F2F2F2" stroke-width="0.5" stroke-linecap="round" opacity="0.3"></path>
            </g>
        </g>
    </g>
</svg>