<?xml version="1.0" encoding="UTF-8" standalone="no"?>
<svg width="19px" height="32px" viewBox="0 0 19 32" version="1.1" xmlns="http://www.w3.org/2000/svg" xmlns:xlink="http://www.w3.org/1999/xlink">
    <!-- Generator: Sketch 3.6.1 (26313) - http://www.bohemiancoding.com/sketch -->
    <title>Group 6</title>
    <desc>Created with Sketch.</desc>
    <defs></defs>
    <g id="Page-1" stroke="none" stroke-width="1" fill="none" fill-rule="evenodd">
        <g id="Create-Pair-Mobile" transform="translate(-20.000000, -11.000000)">
            <g id="Group-6" transform="translate(20.000000, 12.000000)">
                <path d="M7.32397047,29.4829354 C6.38507011,29.4906036 5.13201699,29.7979294 4.44281284,29.7977122 C1.52594872,29.7967933 0.385624577,26.3719222 0.251538104,24.1193087 C0.117451631,21.8666951 1.12201671,19.7655588 1.90823945,18.8962298 C2.6944622,18.0269007 3.18464516,17.4435185 3.54398202,14.9631727 C3.90331888,12.4828269 4.9046141,11.1447596 5.45706866,10.612431 C6.00952321,10.0801024 7.2843035,10.0108022 7.2843035,10.0108022 L7.28432356,10.0160024 C7.47193842,10.0280617 8.66101919,10.1228309 9.16912972,10.612431 C9.72158427,11.1447596 10.7228795,12.4828269 11.0822164,14.9631727 C11.4415532,17.4435185 11.9317362,18.0269007 12.7179589,18.8962298 C13.5041817,19.7655588 14.5087467,21.8666951 14.3746603,24.1193087 C14.2405738,26.3719222 13.1002497,29.7967933 10.1833855,29.7977122 C9.48547559,29.7979321 8.26655571,29.4840513 7.32397413,29.4840503 Z" id="Combined-Shape" stroke="#FFC952" stroke-width="0.5" fill="#FFC952"></path>
                <path d="M7.54653981,9.85004751 C7.54653981,9.85004751 7.52480859,5.95680675 7.31888176,4.9033227 C7.11295493,3.84983865 6.01362244,1.33363323 4.86798698,0.0755307054 C4.80060455,-0.0646689441 4.26708213,0.921585791 3.63693448,1.02876355 C3.33826808,1.27178629 4.2237383,1.46288708 6.03494627,5.49453774 C6.8040404,7.20649953 7.008651,7.75636182 7.00865117,8.59069806 C7.00865133,9.42503431 6.97611716,9.87580074 6.97611716,9.87580074 L7.54653981,9.85004751 Z" id="Path-19" stroke="#B5691C" stroke-width="0.5" fill="#B5691C"></path>
                <path d="M7.66187361,8.88992058 C7.66187361,8.88992058 8.91137625,8.02727742 10.4107462,7.86236894 C11.9101162,7.69746046 13.3483271,7.26148267 14.5338603,6.31635952 C15.7193934,5.37123638 15.7501042,4.58837574 16.0028235,3.84070157 C16.2555428,3.09302739 16.448874,2.33135866 16.9200416,1.67313151 C17.3912092,1.01490435 18.8015955,0.0830734984 18.8015955,0.0830734984 C18.8015955,0.0830734984 10.2594667,-0.600571191 7.57142477,5.81727021 C7.57142476,6.56702854 7.66187361,8.88992058 7.66187361,8.88992058 Z" id="Path-20" fill="#99D575"></path>
                <path d="M9.16349921,6.464253 C9.16349921,6.464253 12.4675583,2.70339319 14.4252464,1.66719622" id="Path-22" stroke="#F2F2F2" stroke-width="0.5" stroke-linecap="round" opacity="0.3"></path>
            </g>
        </g>
    </g>
</svg>