<?xml version="1.0" encoding="UTF-8" standalone="no"?>
<svg width="11px" height="12px" viewBox="0 0 11 12" version="1.1" xmlns="http://www.w3.org/2000/svg" xmlns:xlink="http://www.w3.org/1999/xlink">
    <!-- Generator: Sketch 3.6.1 (26313) - http://www.bohemiancoding.com/sketch -->
    <title>Shape</title>
    <desc>Created with Sketch.</desc>
    <defs>
        <path d="M25.4960054,5.68434189e-14 C24.7752356,5.68434189e-14 24.0889479,0.23138642 23.5003592,0.670347684 C22.9184753,0.23656285 22.2154255,5.68434189e-14 21.5056708,5.68434189e-14 C20.5693885,5.68434189e-14 19.6896184,0.394443965 19.0287132,1.10982659 C18.3654135,1.82676214 18,2.78026055 18,3.79380554 C18,4.80786817 18.3658924,5.76136658 19.0196138,6.46743163 L23.5003592,12 L27.9729629,6.47778449 C29.342186,4.9983608 29.342186,2.59028557 27.9739208,1.11034423 C27.3120578,0.394443965 26.4318088,5.68434189e-14 25.4960054,5.68434189e-14 L25.4960054,5.68434189e-14 Z M23.5008381,11.3539815 L19.3069639,6.17703391 C18.7174173,5.54085066 18.3922328,4.69450436 18.3922328,3.79380554 C18.3922328,2.89362436 18.7169384,2.04676042 19.3069639,1.41057717 C19.8936369,0.774393926 20.6752291,0.424984902 21.5061497,0.424984902 C22.189564,0.424984902 22.8384962,0.659994824 23.3825456,1.10257959 L23.5008381,1.19886119 L23.6191305,1.10309723 C24.16318,0.660512467 24.8125911,0.424984902 25.4960054,0.424984902 C26.326926,0.424984902 27.1085182,0.774911569 27.696149,1.41057717 C28.9121187,2.72487275 28.9116398,4.86377362 27.6870496,6.18738677 L23.5008381,11.3539815 Z" id="path-1"></path>
    </defs>
    <g id="Page-1" stroke="none" stroke-width="1" fill="none" fill-rule="evenodd">
        <g id="Main-Page-Mobile" transform="translate(-259.000000, -217.000000)">
            <g id="Group-3" transform="translate(230.000000, 214.000000)">
                <g id="Group" transform="translate(11.000000, 3.000000)">
                    <mask id="mask-2" fill="white">
                        <use xlink:href="#path-1"></use>
                    </mask>
                    <use id="Shape" fill="#FF7473" xlink:href="#path-1"></use>
                </g>
            </g>
        </g>
    </g>
</svg>