<?xml version="1.0" encoding="UTF-8" standalone="no"?>
<svg width="27px" height="27px" viewBox="0 0 27 27" version="1.1" xmlns="http://www.w3.org/2000/svg" xmlns:xlink="http://www.w3.org/1999/xlink">
    <!-- Generator: Sketch 3.6.1 (26313) - http://www.bohemiancoding.com/sketch -->
    <title>Group</title>
    <desc>Created with Sketch.</desc>
    <defs></defs>
    <g id="Page-1" stroke="none" stroke-width="1" fill="none" fill-rule="evenodd">
        <g id="Create-Pair-Mobile" transform="translate(-273.000000, -13.000000)" fill="#FFFFFF">
            <g id="Group" transform="translate(273.000000, 13.000000)">
                <path d="M13.926375,0.799875 L13.689,0.79875 C6.73425,0.79875 0.973125,6.456375 0.844875,13.413375 C0.7155,20.498625 6.37425,26.366625 13.4595,26.496 L13.696875,26.497125 C20.651625,26.497125 26.41275,20.83725 26.539875,13.8825 C26.66925,6.79725 21.0105,0.930375 13.926375,0.799875 L13.926375,0.799875 Z M13.698,25.574625 L13.476375,25.57125 C6.901875,25.45425 1.648125,20.007 1.7685,13.431375 C1.8855,6.973875 7.234875,1.72125 13.689,1.72125 L13.910625,1.7235 C20.485125,1.841625 25.73775,7.28775 25.6185,13.86225 C25.5015,20.320875 20.15325,25.574625 13.698,25.574625 L13.698,25.574625 Z" id="Shape"></path>
                <path d="M18.90675,10.13175 L12.5505,16.26075 L8.571375,12.13425 C8.39475,11.94975 8.10225,11.94525 7.92,12.123 C7.736625,12.2985 7.731,12.589875 7.907625,12.7755 L12.207375,17.23275 C12.295125,17.32275 12.40875,17.409375 12.53925,17.373375 C12.657375,17.373375 12.77325,17.326125 12.85875,17.244 L19.546875,10.79325 C19.73025,10.61775 19.735875,10.32525 19.55925,10.143 C19.3815,9.96075 19.089,9.95625 18.90675,10.13175 L18.90675,10.13175 Z" id="Shape"></path>
            </g>
        </g>
    </g>
</svg>